<mxfile host="app.diagrams.net" modified="2023-10-08T16:36:13.476Z" agent="Mozilla/5.0 (Windows NT 10.0; Win64; x64) AppleWebKit/537.36 (KHTML, like Gecko) Chrome/117.0.0.0 Safari/537.36 Edg/117.0.2045.60" etag="fdaQyVH85WebmsCX78Ox" version="22.0.0" type="github">
  <diagram name="Page-1" id="OCd8-kkMFyzTC73sm7kU">
    <mxGraphModel dx="1025" dy="507" grid="0" gridSize="10" guides="1" tooltips="1" connect="1" arrows="1" fold="1" page="1" pageScale="1" pageWidth="850" pageHeight="1100" math="0" shadow="0">
      <root>
        <mxCell id="0" />
        <mxCell id="1" parent="0" />
        <mxCell id="p7oWcwWUZvc8ahHYj3Ei-1" value="Patient" style="rounded=0;whiteSpace=wrap;html=1;" parent="1" vertex="1">
          <mxGeometry x="40" y="230" width="120" height="60" as="geometry" />
        </mxCell>
        <mxCell id="p7oWcwWUZvc8ahHYj3Ei-2" value="0" style="swimlane;childLayout=stackLayout;horizontal=1;startSize=50;horizontalStack=0;rounded=1;fontSize=14;fontStyle=0;strokeWidth=2;resizeParent=0;resizeLast=1;shadow=0;dashed=0;align=center;arcSize=4;whiteSpace=wrap;html=1;" parent="1" vertex="1">
          <mxGeometry x="300" y="190" width="150" height="100" as="geometry" />
        </mxCell>
        <mxCell id="p7oWcwWUZvc8ahHYj3Ei-3" value="Alternative recommeder&lt;br&gt;system" style="align=center;strokeColor=none;fillColor=none;spacingLeft=4;fontSize=12;verticalAlign=top;resizable=0;rotatable=0;part=1;html=1;" parent="p7oWcwWUZvc8ahHYj3Ei-2" vertex="1">
          <mxGeometry y="50" width="150" height="50" as="geometry" />
        </mxCell>
        <mxCell id="p7oWcwWUZvc8ahHYj3Ei-4" value="" style="endArrow=classic;html=1;rounded=0;exitX=1;exitY=0.5;exitDx=0;exitDy=0;" parent="1" source="p7oWcwWUZvc8ahHYj3Ei-1" edge="1">
          <mxGeometry width="50" height="50" relative="1" as="geometry">
            <mxPoint x="160" y="246" as="sourcePoint" />
            <mxPoint x="300" y="260" as="targetPoint" />
          </mxGeometry>
        </mxCell>
        <mxCell id="p7oWcwWUZvc8ahHYj3Ei-5" value="Upload GL&lt;br&gt;Location&lt;br&gt;Food" style="text;html=1;align=center;verticalAlign=middle;resizable=0;points=[];autosize=1;strokeColor=none;fillColor=none;" parent="1" vertex="1">
          <mxGeometry x="190" y="201" width="80" height="60" as="geometry" />
        </mxCell>
        <mxCell id="p7oWcwWUZvc8ahHYj3Ei-6" value="" style="endArrow=classic;html=1;rounded=0;exitX=0;exitY=0.25;exitDx=0;exitDy=0;" parent="1" edge="1">
          <mxGeometry width="50" height="50" relative="1" as="geometry">
            <mxPoint x="300" y="276.5" as="sourcePoint" />
            <mxPoint x="160" y="277" as="targetPoint" />
          </mxGeometry>
        </mxCell>
        <mxCell id="p7oWcwWUZvc8ahHYj3Ei-7" value="Return&lt;br&gt;Recipes" style="text;html=1;align=center;verticalAlign=middle;resizable=0;points=[];autosize=1;strokeColor=none;fillColor=none;" parent="1" vertex="1">
          <mxGeometry x="195" y="269" width="70" height="40" as="geometry" />
        </mxCell>
        <mxCell id="p7oWcwWUZvc8ahHYj3Ei-8" value="Recipe Database" style="rounded=0;whiteSpace=wrap;html=1;" parent="1" vertex="1">
          <mxGeometry x="600" y="230" width="120" height="60" as="geometry" />
        </mxCell>
        <mxCell id="p7oWcwWUZvc8ahHYj3Ei-9" value="" style="endArrow=classic;html=1;rounded=0;entryX=0;entryY=0.5;entryDx=0;entryDy=0;" parent="1" target="p7oWcwWUZvc8ahHYj3Ei-8" edge="1">
          <mxGeometry width="50" height="50" relative="1" as="geometry">
            <mxPoint x="450" y="260" as="sourcePoint" />
            <mxPoint x="610" y="230" as="targetPoint" />
          </mxGeometry>
        </mxCell>
        <mxCell id="p7oWcwWUZvc8ahHYj3Ei-10" value="" style="endArrow=classic;html=1;rounded=0;exitX=0;exitY=0.75;exitDx=0;exitDy=0;entryX=1;entryY=0.75;entryDx=0;entryDy=0;" parent="1" source="p7oWcwWUZvc8ahHYj3Ei-8" target="p7oWcwWUZvc8ahHYj3Ei-3" edge="1">
          <mxGeometry width="50" height="50" relative="1" as="geometry">
            <mxPoint x="460" y="239" as="sourcePoint" />
            <mxPoint x="610" y="235" as="targetPoint" />
          </mxGeometry>
        </mxCell>
        <mxCell id="p7oWcwWUZvc8ahHYj3Ei-11" value="Filter&amp;nbsp;&lt;br&gt;Similar&amp;nbsp;&lt;br&gt;Alternatives" style="text;html=1;align=center;verticalAlign=middle;resizable=0;points=[];autosize=1;strokeColor=none;fillColor=none;" parent="1" vertex="1">
          <mxGeometry x="480" y="201" width="90" height="60" as="geometry" />
        </mxCell>
        <mxCell id="p7oWcwWUZvc8ahHYj3Ei-12" value="Return Recipes" style="text;html=1;align=center;verticalAlign=middle;resizable=0;points=[];autosize=1;strokeColor=none;fillColor=none;" parent="1" vertex="1">
          <mxGeometry x="480" y="279" width="110" height="30" as="geometry" />
        </mxCell>
      </root>
    </mxGraphModel>
  </diagram>
</mxfile>
